<svg width="11" height="14" viewBox="0 0 11 14" fill="none" xmlns="http://www.w3.org/2000/svg">
  <path fill-rule="evenodd" clip-rule="evenodd"
    d="M11 7C11 10.866 7.86599 14 3.99999 14C2.84009 14 1.74608 13.7179 0.782837 13.2185C1.69152 13.1825 2.54266 12.8826 3.28147 12.3826C3.54744 12.4233 3.81986 12.4444 4.09722 12.4444C7.0504 12.4444 9.44444 10.0504 9.44444 7.09722C9.44444 4.14403 7.0504 1.75 4.09722 1.75C3.89907 1.75 3.70345 1.76078 3.5109 1.78178C2.72114 1.18346 1.78713 0.821325 0.78284 0.781457C1.74609 0.282109 2.84009 0 3.99999 0C7.86599 0 11 3.13401 11 7Z"
    fill="white" />
</svg>