<svg width="14" height="16" viewBox="0 0 14 16" fill="none" xmlns="http://www.w3.org/2000/svg">
  <path fill-rule="evenodd" clip-rule="evenodd"
    d="M7.78036 7.96505C7.88878 7.8989 7.98079 7.76033 8.055 7.60633C9.03141 8.00542 9.71755 8.9484 9.71755 10.0481C9.71755 11.5091 8.50663 12.6934 7.01288 12.6934C6.3997 12.6934 5.83417 12.4938 5.38051 12.1575C5.23169 12.087 5.10925 12.0193 5.00905 11.9639C4.85365 11.878 4.75175 11.8217 4.68794 11.8305C4.50139 11.8562 4.55556 12.0278 4.60477 12.1837C4.6382 12.2896 4.66933 12.3883 4.62113 12.429C4.57068 12.4716 4.40731 12.3158 4.2164 12.1338C3.95654 11.886 3.64566 11.5896 3.49907 11.6787C3.38315 11.7491 3.49569 11.94 3.63343 12.1738L3.64366 12.1911C3.70185 12.29 3.76928 12.3905 3.83082 12.4824C3.9559 12.669 4.05667 12.8193 4.00623 12.8448C3.94531 12.8755 3.52076 12.589 3.16296 12.1911C3.02487 12.0376 2.89109 11.8711 2.7668 11.7165C2.49471 11.3779 2.26802 11.0959 2.14078 11.1293C1.9877 11.1695 2.1035 11.4852 2.27364 11.7891C2.35321 11.9312 2.44681 12.0759 2.52785 12.2011C2.65388 12.396 2.74953 12.5438 2.71483 12.562C2.66802 12.5865 2.25611 12.1848 1.97636 11.6787C1.81018 11.378 1.67065 11.0458 1.55769 10.7768C1.43518 10.4851 1.34393 10.2678 1.28384 10.2459C1.07508 10.1699 1.07508 10.5956 1.15881 11.21C1.16973 11.2901 1.18599 11.3741 1.20602 11.4597C2.01802 14.087 4.51242 16 7.46366 16C11.0736 16 13.9999 13.1379 13.9999 9.60723C13.9999 6.24688 11.349 3.49209 7.98093 3.2342C7.98517 3.07589 8.06779 2.76197 8.06779 2.76197C8.06779 2.76197 8.6624 1.32335 8.69382 1.01594C8.6959 0.995532 8.69837 0.973361 8.70101 0.949747C8.73806 0.61759 8.80696 0 8.27565 0C7.9919 0 7.85995 0.211082 7.70903 0.452497C7.6511 0.545176 7.59037 0.642326 7.51719 0.733719C6.99006 1.39199 6.10367 2.21403 5.60107 2.65197C4.53876 3.57764 3.49651 4.33839 2.88866 4.78207L2.88865 4.78207L2.88864 4.78208C2.61216 4.98389 2.42555 5.12009 2.36781 5.17638C1.93261 5.60063 0.37223 8.4152 0.37223 8.4152C0.37223 8.4152 -0.13238 9.3182 0.0469794 9.50134C0.226339 9.68447 0.658862 9.6425 0.658862 9.6425C0.658862 9.6425 6.4695 8.30948 6.98974 8.20433C7.1298 8.17603 7.22867 8.1597 7.30459 8.14716C7.51067 8.11312 7.54767 8.10701 7.78036 7.96505ZM3.67202 6.25199C3.36012 6.54847 2.84284 7.25614 2.84284 7.25614C2.84284 7.25614 3.80422 7.31536 4.3337 6.81206C4.86318 6.30876 4.74186 5.45103 4.74186 5.45103C4.74186 5.45103 3.98391 5.95552 3.67202 6.25199Z"
    fill="white" />
</svg>