<svg width="15" height="15" viewBox="0 0 15 15" fill="none" xmlns="http://www.w3.org/2000/svg">
<path fill-rule="evenodd" clip-rule="evenodd" d="M3.27007 11.9238L5.34476 11.3223L7.28712 14.8737C7.37913 15.042 7.62078 15.042 7.71279 14.8737L9.65515 11.3223L11.7298 11.9238C11.914 11.9772 12.0844 11.8059 12.03 11.622L11.4306 9.59591L14.8737 7.71279C15.042 7.62078 15.042 7.37913 14.8737 7.28712L11.3991 5.38678L12.03 3.25424C12.0844 3.07035 11.914 2.89902 11.7298 2.95242L9.59678 3.57092L7.71279 0.126186C7.62078 -0.0420619 7.37913 -0.0420622 7.28712 0.126186L5.40313 3.57092L3.27007 2.95242C3.08589 2.89902 2.91548 3.07035 2.96989 3.25424L3.60082 5.38678L0.126186 7.28712C-0.0420619 7.37913 -0.0420622 7.62078 0.126186 7.71279L3.56933 9.59591L2.96989 11.622C2.91548 11.8059 3.08589 11.9772 3.27007 11.9238ZM5.16489 7.73318L6.54997 8.4907L7.3075 9.87579C7.39952 10.044 7.64116 10.044 7.73318 9.87579L8.4907 8.4907L9.87579 7.73318C10.044 7.64116 10.044 7.39952 9.87579 7.3075L8.4907 6.54997L7.73318 5.16489C7.64116 4.99664 7.39952 4.99664 7.3075 5.16489L6.54997 6.54997L5.16489 7.3075C4.99664 7.39952 4.99664 7.64116 5.16489 7.73318Z" fill="white"/>
</svg>
