<svg width="12" height="15" viewBox="0 0 12 15" fill="none" xmlns="http://www.w3.org/2000/svg">
  <path fill-rule="evenodd" clip-rule="evenodd"
    d="M8.48548 11.44C8.66853 10.7708 8.31324 9.39488 8.31324 9.39488C8.31324 9.39488 8.05557 10.5157 7.65292 10.93C7.30944 11.2834 6.88861 11.5285 6.28504 11.5929C6.77849 11.3532 7.11787 10.8534 7.11787 10.2757C7.11787 9.46487 6.44917 8.80752 5.62427 8.80752C4.79938 8.80752 4.13068 9.46487 4.13068 10.2757C4.13068 10.4972 4.18056 10.7072 4.26989 10.8955C3.75396 10.4845 3.67281 9.82554 3.67281 9.82554C3.67281 9.82554 3.09672 12.2174 4.68415 13.3426C6.27158 14.4678 9.38127 13.5006 9.38127 13.5006C9.38127 13.5006 4.9311 16.6319 1.63349 13.2239C-1.20716 10.2882 0.892062 6.42324 0.892062 6.42324C0.892062 6.42324 0.801401 6.78178 0.801401 7.19799C0.801401 7.6142 1.02706 7.93087 1.02706 7.93087C1.02706 7.93087 1.70019 6.51202 2.22407 5.935C2.71986 5.38892 3.34138 4.946 3.87818 4.56345C4.29142 4.26896 4.65446 4.01024 4.87131 3.76777C6.06557 2.43238 5.3333 0 5.3333 0C5.3333 0 6.67956 1.18684 7.05541 2.71965C7.19868 3.30394 7.10651 3.96874 7.02409 4.56323C6.8903 5.52832 6.78218 6.30814 7.74869 6.25754C9.31056 6.17577 7.95336 3.76777 7.95336 3.76777C7.95336 3.76777 11.4963 5.6299 11.2316 8.88668C10.9669 12.1435 7.35899 12.8839 7.35899 12.8839C7.35899 12.8839 8.30244 12.1093 8.48548 11.44Z"
    fill="white" />
</svg>