<svg width="15" height="15" viewBox="0 0 15 15" fill="none" xmlns="http://www.w3.org/2000/svg">
  <path fill-rule="evenodd" clip-rule="evenodd"
    d="M3.19586 13.63C5.66393 15.1964 9.35746 14.5614 11.9594 11.9594C14.8883 9.03051 15.325 4.7184 12.9346 2.32807C10.5443 -0.0622565 6.2322 0.374369 3.30327 3.3033C0.374334 6.23223 -0.0622907 10.5443 2.32804 12.9347C2.3733 12.9799 2.41925 13.0242 2.46586 13.0674L4.44485 10.6256L4.44484 7.92991L5.10365 9.95689L6.52483 8.35476L6.24745 6.51892L7.03539 7.63082L9.07583 5.34212L7.64133 7.92991L9.07583 8.35476L7.2617 8.75216L5.66801 10.3749L8.17574 10.6256L5.10365 11.2888L3.19586 13.63Z"
    fill="white" />
</svg>