<svg width="17" height="11" viewBox="0 0 17 11" fill="none" xmlns="http://www.w3.org/2000/svg">
  <path fill-rule="evenodd" clip-rule="evenodd"
    d="M4.36831 10.9572C4.30738 10.9572 4.26478 10.8969 4.28511 10.8395L8.07381 0.134024C8.10224 0.053696 8.1782 0 8.26341 0H12.122C12.2075 0 12.2837 0.0541251 12.3119 0.134911L15.9919 10.6898C16.0375 10.8206 15.9404 10.9572 15.802 10.9572H4.36831ZM1.19777 11C1.05737 11 0.960175 10.8598 1.00942 10.7283L3.74775 3.41771C3.77716 3.33917 3.85223 3.28713 3.93609 3.28713H6.02886C6.16832 3.28713 6.26545 3.42562 6.21796 3.55675L3.57007 10.8674C3.54124 10.947 3.46564 11 3.38097 11H1.19777Z"
    fill="white" />
</svg>