<svg width="17" height="17" viewBox="0 0 17 17" fill="none" xmlns="http://www.w3.org/2000/svg">
  <path fill-rule="evenodd" clip-rule="evenodd"
    d="M12.6529 1.33573L12.7051 5.91341L8.71234 7.83009L8.66311 3.50789L12.6529 1.33573Z" fill="white" />
  <path fill-rule="evenodd" clip-rule="evenodd"
    d="M16.6554 8.54902L12.7029 10.8098L8.74805 8.54544L12.7009 6.46914L16.6554 8.54902Z" fill="white" />
  <path fill-rule="evenodd" clip-rule="evenodd"
    d="M8.04507 8.54902L4.09255 10.8098L0.137702 8.54544L4.09051 6.46914L8.04507 8.54902Z" fill="white" />
  <path fill-rule="evenodd" clip-rule="evenodd"
    d="M4.04819 1.31697L8.15061 3.34874L8.04572 7.77643L4.17227 5.85805L4.04819 1.31697Z" fill="white" />
  <path fill-rule="evenodd" clip-rule="evenodd"
    d="M12.7647 15.7118L8.66226 13.68L8.76714 9.25231L12.6406 11.1707L12.7647 15.7118Z" fill="white" />
  <path fill-rule="evenodd" clip-rule="evenodd"
    d="M4.18985 15.753L4.13772 11.1753L8.13044 9.25861L8.17966 13.5808L4.18985 15.753Z" fill="white" />
</svg>